<svg xmlns="http://www.w3.org/2000/svg" viewBox="0 0 1200 720" role="img" aria-labelledby="title desc">
        <title id="title">Adaptive Prompting / for Metaverse Tasks brochure card</title>
        <desc id="desc">An iterative prompt-optimization framework for improving LLM task performance across diverse application settings.</desc>
        <defs>
          <linearGradient id="bg" x1="0" y1="0" x2="1" y2="1">
            <stop offset="0%" stop-color="#fbf7ff"/>
            <stop offset="100%" stop-color="#eadcf7"/>
          </linearGradient>
          <linearGradient id="panel" x1="0" y1="0" x2="1" y2="1">
            <stop offset="0%" stop-color="#ffffff"/>
            <stop offset="100%" stop-color="#f6eefc"/>
          </linearGradient>
        </defs>
        <rect width="1200" height="720" fill="url(#bg)"/>
        <circle cx="1060" cy="116" r="124" fill="#f0e2fb"/>
        <circle cx="1094" cy="610" r="138" fill="#fbf7ff"/>
        <rect x="48" y="48" width="1104" height="624" rx="34" fill="url(#panel)" stroke="#bba1d8" stroke-width="2"/>
        <text x="84" y="102" fill="#6d3c99" font-family="Arial, sans-serif" font-size="22" font-weight="700">MetaCom Workshop Paper - August 27, 2025</text>
        <text x="84" y="170" fill="#412555" font-family="Georgia, serif" font-size="50" font-weight="700">
  <tspan x="84" dy="0">Adaptive Prompting</tspan>
  <tspan x="84" dy="56">for Metaverse Tasks</tspan>
</text>
        <text x="84" y="302" fill="#6d5b7b" font-family="Arial, sans-serif" font-size="25" font-weight="400">
  <tspan x="84" dy="0">An iterative prompt-optimization framework for improving</tspan>
  <tspan x="84" dy="34">LLM task performance across diverse application settings.</tspan>
</text>
        <rect x="84" y="432" width="210" height="112" rx="22" fill="#7d4cb0"/>  <text x="106" y="468" fill="#efe2fb" font-family="Arial, sans-serif" font-size="18" font-weight="700">LLM FLOW</text>  <text x="106" y="510" fill="#ffffff" font-family="Georgia, serif" font-size="28" font-weight="700">Iterative prompts</text>  <rect x="312" y="432" width="210" height="112" rx="22" fill="#4967a8"/>  <text x="334" y="468" fill="#e0e8fb" font-family="Arial, sans-serif" font-size="18" font-weight="700">TASKS</text>  <text x="334" y="510" fill="#ffffff" font-family="Georgia, serif" font-size="28" font-weight="700">Diverse settings</text>  <rect x="540" y="432" width="210" height="112" rx="22" fill="#2d7669"/>  <text x="562" y="468" fill="#ddf1ec" font-family="Arial, sans-serif" font-size="18" font-weight="700">GOAL</text>  <text x="562" y="510" fill="#ffffff" font-family="Georgia, serif" font-size="26" font-weight="700">Better performance</text>
        <rect x="808" y="124" width="288" height="430" rx="28" fill="#41245a"/>
        <text x="846" y="160" fill="#dcecf8" font-family="Arial, sans-serif" font-size="19" font-weight="700">BROCHURE INSIGHTS</text>
        <rect x="850" y="180" width="78" height="52" rx="14" fill="#f0e2fb"/>  <text x="868" y="213" fill="#6d3c99" font-family="Arial, sans-serif" font-size="18" font-weight="700">Prompt</text>  <rect x="950" y="180" width="78" height="52" rx="14" fill="#f0e2fb"/>  <text x="968" y="213" fill="#6d3c99" font-family="Arial, sans-serif" font-size="18" font-weight="700">Feedback</text>  <rect x="900" y="270" width="78" height="52" rx="14" fill="#d7c0ee"/>  <text x="918" y="303" fill="#6d3c99" font-family="Arial, sans-serif" font-size="18" font-weight="700">Task</text>
        <line x1="928" y1="232" x2="928" y2="270" stroke="#b68be2" stroke-width="8" stroke-linecap="round"/>
        <line x1="972" y1="232" x2="950" y2="270" stroke="#b68be2" stroke-width="8" stroke-linecap="round"/>
        <path d="M878 354 C918 314 978 314 1020 354" fill="none" stroke="#68c3d9" stroke-width="8" stroke-linecap="round"/>
        <path d="M878 382 C918 344 978 344 1020 382" fill="none" stroke="#b68be2" stroke-width="8" stroke-linecap="round"/>
        <text x="846" y="498" fill="#dcecf8" font-family="Arial, sans-serif" font-size="18" font-weight="700">Treats prompting as an adaptive cycle</text>  <text x="846" y="528" fill="#dcecf8" font-family="Arial, sans-serif" font-size="18" font-weight="700">Context-aware optimization is central to the design</text>  <text x="846" y="558" fill="#dcecf8" font-family="Arial, sans-serif" font-size="18" font-weight="700">Presented in MetaCom Workshop Session 1</text>
        <text x="84" y="610" fill="#6d3c99" font-family="Arial, sans-serif" font-size="18" font-weight="700">IEEE MetaCom 2025 - Workshop Session 1</text>
        <text x="84" y="638" fill="#6d5b7b" font-family="Arial, sans-serif" font-size="17">Verified from DOI metadata, the MetaCom program, and the J-GLOBAL proceedings entry.</text>
      </svg>
