<svg xmlns="http://www.w3.org/2000/svg" viewBox="0 0 1200 720" role="img" aria-labelledby="title desc">
        <title id="title">Container Migration / Strategy Evaluation brochure card</title>
        <desc id="desc">Stochastic Petri net models compare Cold, PreCopy, PostCopy, and Hybrid policies in realistic migration settings.</desc>
        <defs>
          <linearGradient id="bg" x1="0" y1="0" x2="1" y2="1">
            <stop offset="0%" stop-color="#f5fbff"/>
            <stop offset="100%" stop-color="#d8e7f7"/>
          </linearGradient>
          <linearGradient id="panel" x1="0" y1="0" x2="1" y2="1">
            <stop offset="0%" stop-color="#ffffff"/>
            <stop offset="100%" stop-color="#eef5fc"/>
          </linearGradient>
        </defs>
        <rect width="1200" height="720" fill="url(#bg)"/>
        <circle cx="1060" cy="116" r="124" fill="#dce9fb"/>
        <circle cx="1094" cy="610" r="138" fill="#f5fbff"/>
        <rect x="48" y="48" width="1104" height="624" rx="34" fill="url(#panel)" stroke="#97b6da" stroke-width="2"/>
        <text x="84" y="102" fill="#114679" font-family="Arial, sans-serif" font-size="22" font-weight="700">Journal Article - February 5, 2025</text>
        <text x="84" y="170" fill="#183451" font-family="Georgia, serif" font-size="50" font-weight="700">
  <tspan x="84" dy="0">Container Migration</tspan>
  <tspan x="84" dy="56">Strategy Evaluation</tspan>
</text>
        <text x="84" y="302" fill="#5b6e84" font-family="Arial, sans-serif" font-size="25" font-weight="400">
  <tspan x="84" dy="0">Stochastic Petri net models compare Cold, PreCopy,</tspan>
  <tspan x="84" dy="34">PostCopy, and Hybrid policies in realistic migration settings.</tspan>
</text>
        <rect x="84" y="432" width="210" height="112" rx="22" fill="#175892"/>  <text x="106" y="468" fill="#dbeafb" font-family="Arial, sans-serif" font-size="18" font-weight="700">POLICIES</text>  <text x="106" y="510" fill="#ffffff" font-family="Georgia, serif" font-size="32" font-weight="700">4 strategies</text>  <rect x="312" y="432" width="210" height="112" rx="22" fill="#2f6e92"/>  <text x="334" y="468" fill="#dbeef6" font-family="Arial, sans-serif" font-size="18" font-weight="700">METRICS</text>  <text x="334" y="510" fill="#ffffff" font-family="Georgia, serif" font-size="23" font-weight="700">MTT, rate, discard</text>  <rect x="540" y="432" width="210" height="112" rx="22" fill="#556d8f"/>  <text x="562" y="468" fill="#e2e8f6" font-family="Arial, sans-serif" font-size="18" font-weight="700">INSIGHT</text>  <text x="562" y="510" fill="#ffffff" font-family="Georgia, serif" font-size="28" font-weight="700">Policy trade-offs</text>
        <rect x="808" y="124" width="288" height="430" rx="28" fill="#153450"/>
        <text x="846" y="160" fill="#dcecf8" font-family="Arial, sans-serif" font-size="19" font-weight="700">BROCHURE INSIGHTS</text>
        <rect x="850" y="180" width="78" height="52" rx="14" fill="#dce9fb"/>  <text x="868" y="213" fill="#114679" font-family="Arial, sans-serif" font-size="18" font-weight="700">Cold</text>  <rect x="950" y="180" width="78" height="52" rx="14" fill="#dce9fb"/>  <text x="968" y="213" fill="#114679" font-family="Arial, sans-serif" font-size="18" font-weight="700">Pre</text>  <rect x="900" y="270" width="78" height="52" rx="14" fill="#bfd7ef"/>  <text x="918" y="303" fill="#114679" font-family="Arial, sans-serif" font-size="18" font-weight="700">Post</text>
        <line x1="928" y1="232" x2="928" y2="270" stroke="#66c1da" stroke-width="8" stroke-linecap="round"/>
        <line x1="972" y1="232" x2="950" y2="270" stroke="#66c1da" stroke-width="8" stroke-linecap="round"/>
        <path d="M878 354 C918 314 978 314 1020 354" fill="none" stroke="#f2c15b" stroke-width="8" stroke-linecap="round"/>
        <path d="M878 382 C918 344 978 344 1020 382" fill="none" stroke="#66c1da" stroke-width="8" stroke-linecap="round"/>
        <text x="846" y="498" fill="#dcecf8" font-family="Arial, sans-serif" font-size="18" font-weight="700">Cold lowers total time at high arrival pressure</text>  <text x="846" y="528" fill="#dcecf8" font-family="Arial, sans-serif" font-size="18" font-weight="700">PostCopy yields the lowest discard probability</text>  <text x="846" y="558" fill="#dcecf8" font-family="Arial, sans-serif" font-size="18" font-weight="700">Hybrid policy was studied with sensitivity analysis</text>
        <text x="84" y="610" fill="#114679" font-family="Arial, sans-serif" font-size="18" font-weight="700">Computing - Volume 107, Article 64</text>
        <text x="84" y="638" fill="#5b6e84" font-family="Arial, sans-serif" font-size="17">Verified from the Springer abstract page and DOI metadata.</text>
      </svg>
